<svg width="22" height="468" viewBox="0 0 22 468" fill="none" xmlns="http://www.w3.org/2000/svg">
<line x1="10.7138" y1="1.00615" x2="10.7137" y2="25.5848" stroke="white" stroke-opacity="0.17" stroke-width="2.52088"/>
<line x1="10.7138" y1="25.5848" x2="10.7137" y2="50.1634" stroke="white" stroke-opacity="0.17" stroke-width="2.52088"/>
<line x1="10.7138" y1="50.1634" x2="10.7137" y2="74.742" stroke="white" stroke-opacity="0.17" stroke-width="2.52088"/>
<line x1="10.7138" y1="74.742" x2="10.7137" y2="99.3206" stroke="white" stroke-opacity="0.17" stroke-width="2.52088"/>
<line x1="10.7138" y1="99.3206" x2="10.7137" y2="123.899" stroke="white" stroke-opacity="0.17" stroke-width="2.52088"/>
<line x1="10.7138" y1="123.899" x2="10.7137" y2="148.478" stroke="white" stroke-opacity="0.17" stroke-width="2.52088"/>
<line x1="10.7138" y1="148.478" x2="10.7137" y2="173.057" stroke="white" stroke-opacity="0.17" stroke-width="2.52088"/>
<line x1="10.7138" y1="173.057" x2="10.7137" y2="197.635" stroke="white" stroke-opacity="0.17" stroke-width="2.52088"/>
<line x1="10.7138" y1="197.635" x2="10.7137" y2="222.214" stroke="white" stroke-opacity="0.17" stroke-width="2.52088"/>
<line x1="10.7138" y1="222.214" x2="10.7137" y2="246.792" stroke="white" stroke-opacity="0.17" stroke-width="2.52088"/>
<line x1="10.7138" y1="246.792" x2="10.7137" y2="271.371" stroke="white" stroke-opacity="0.17" stroke-width="2.52088"/>
<line x1="10.7138" y1="271.371" x2="10.7137" y2="295.95" stroke="white" stroke-opacity="0.17" stroke-width="2.52088"/>
<line x1="10.7138" y1="295.95" x2="10.7137" y2="320.528" stroke="white" stroke-opacity="0.17" stroke-width="2.52088"/>
<line x1="10.7138" y1="320.528" x2="10.7137" y2="345.107" stroke="white" stroke-opacity="0.17" stroke-width="2.52088"/>
<line x1="10.7138" y1="345.107" x2="10.7137" y2="369.685" stroke="white" stroke-opacity="0.17" stroke-width="2.52088"/>
<line x1="10.7138" y1="369.686" x2="10.7137" y2="394.264" stroke="white" stroke-opacity="0.17" stroke-width="2.52088"/>
<line x1="10.7138" y1="394.264" x2="10.7137" y2="418.843" stroke="white" stroke-opacity="0.17" stroke-width="2.52088"/>
<line x1="10.7138" y1="418.843" x2="10.7137" y2="443.421" stroke="white" stroke-opacity="0.17" stroke-width="2.52088"/>
<line x1="10.7138" y1="443.421" x2="10.7137" y2="468" stroke="white" stroke-opacity="0.17" stroke-width="2.52088"/>
<line y1="1.00615" x2="21.4275" y2="1.00615" stroke="white" stroke-opacity="0.17" stroke-width="1.26044"/>
<line y1="1.00615" x2="21.4275" y2="1.00615" stroke="white" stroke-opacity="0.17" stroke-width="1.26044"/>
<line y1="25.5848" x2="21.4275" y2="25.5848" stroke="white" stroke-opacity="0.17" stroke-width="1.26044"/>
<line y1="25.5848" x2="21.4275" y2="25.5848" stroke="white" stroke-opacity="0.17" stroke-width="1.26044"/>
<line y1="50.1634" x2="21.4275" y2="50.1634" stroke="white" stroke-opacity="0.17" stroke-width="1.26044"/>
<line y1="50.1634" x2="21.4275" y2="50.1634" stroke="white" stroke-opacity="0.17" stroke-width="1.26044"/>
<line y1="74.742" x2="21.4275" y2="74.742" stroke="white" stroke-opacity="0.17" stroke-width="1.26044"/>
<line y1="74.742" x2="21.4275" y2="74.742" stroke="white" stroke-opacity="0.17" stroke-width="1.26044"/>
<line y1="99.3206" x2="21.4275" y2="99.3206" stroke="white" stroke-opacity="0.17" stroke-width="1.26044"/>
<line y1="99.3206" x2="21.4275" y2="99.3206" stroke="white" stroke-opacity="0.17" stroke-width="1.26044"/>
<line y1="123.899" x2="21.4275" y2="123.899" stroke="white" stroke-opacity="0.17" stroke-width="1.26044"/>
<line y1="123.899" x2="21.4275" y2="123.899" stroke="white" stroke-opacity="0.17" stroke-width="1.26044"/>
<line y1="148.478" x2="21.4275" y2="148.478" stroke="white" stroke-opacity="0.17" stroke-width="1.26044"/>
<line y1="148.478" x2="21.4275" y2="148.478" stroke="white" stroke-opacity="0.17" stroke-width="1.26044"/>
<line y1="173.057" x2="21.4275" y2="173.057" stroke="white" stroke-opacity="0.17" stroke-width="1.26044"/>
<line y1="173.057" x2="21.4275" y2="173.057" stroke="white" stroke-opacity="0.17" stroke-width="1.26044"/>
<line y1="197.635" x2="21.4275" y2="197.635" stroke="white" stroke-opacity="0.17" stroke-width="1.26044"/>
<line y1="197.635" x2="21.4275" y2="197.635" stroke="white" stroke-opacity="0.17" stroke-width="1.26044"/>
<line y1="222.214" x2="21.4275" y2="222.214" stroke="white" stroke-opacity="0.17" stroke-width="1.26044"/>
<line y1="222.214" x2="21.4275" y2="222.214" stroke="white" stroke-opacity="0.17" stroke-width="1.26044"/>
<line y1="246.792" x2="21.4275" y2="246.792" stroke="white" stroke-opacity="0.17" stroke-width="1.26044"/>
<line y1="246.792" x2="21.4275" y2="246.792" stroke="white" stroke-opacity="0.17" stroke-width="1.26044"/>
<line y1="271.371" x2="21.4275" y2="271.371" stroke="white" stroke-opacity="0.17" stroke-width="1.26044"/>
<line y1="271.371" x2="21.4275" y2="271.371" stroke="white" stroke-opacity="0.17" stroke-width="1.26044"/>
<line y1="295.95" x2="21.4275" y2="295.95" stroke="white" stroke-opacity="0.17" stroke-width="1.26044"/>
<line y1="295.95" x2="21.4275" y2="295.95" stroke="white" stroke-opacity="0.17" stroke-width="1.26044"/>
<line y1="320.528" x2="21.4275" y2="320.528" stroke="white" stroke-opacity="0.17" stroke-width="1.26044"/>
<line y1="320.528" x2="21.4275" y2="320.528" stroke="white" stroke-opacity="0.17" stroke-width="1.26044"/>
<line y1="345.107" x2="21.4275" y2="345.107" stroke="white" stroke-opacity="0.17" stroke-width="1.26044"/>
<line y1="345.107" x2="21.4275" y2="345.107" stroke="white" stroke-opacity="0.17" stroke-width="1.26044"/>
<line y1="369.685" x2="21.4275" y2="369.685" stroke="white" stroke-opacity="0.17" stroke-width="1.26044"/>
<line y1="369.685" x2="21.4275" y2="369.685" stroke="white" stroke-opacity="0.17" stroke-width="1.26044"/>
<line y1="394.264" x2="21.4275" y2="394.264" stroke="white" stroke-opacity="0.17" stroke-width="1.26044"/>
<line y1="394.264" x2="21.4275" y2="394.264" stroke="white" stroke-opacity="0.17" stroke-width="1.26044"/>
<line y1="418.843" x2="21.4275" y2="418.843" stroke="white" stroke-opacity="0.17" stroke-width="1.26044"/>
<line y1="418.843" x2="21.4275" y2="418.843" stroke="white" stroke-opacity="0.17" stroke-width="1.26044"/>
<line y1="443.421" x2="21.4275" y2="443.421" stroke="white" stroke-opacity="0.17" stroke-width="1.26044"/>
<line y1="443.421" x2="21.4275" y2="443.421" stroke="white" stroke-opacity="0.17" stroke-width="1.26044"/>
<line x1="4.41156" y1="5.7328" x2="17.016" y2="5.7328" stroke="white" stroke-opacity="0.17" stroke-width="0.630221"/>
<line x1="4.41156" y1="30.3114" x2="17.016" y2="30.3114" stroke="white" stroke-opacity="0.17" stroke-width="0.630221"/>
<line x1="4.41156" y1="54.8901" x2="17.016" y2="54.8901" stroke="white" stroke-opacity="0.17" stroke-width="0.630221"/>
<line x1="4.41156" y1="79.4687" x2="17.016" y2="79.4687" stroke="white" stroke-opacity="0.17" stroke-width="0.630221"/>
<line x1="4.41156" y1="104.047" x2="17.016" y2="104.047" stroke="white" stroke-opacity="0.17" stroke-width="0.630221"/>
<line x1="4.41156" y1="128.626" x2="17.016" y2="128.626" stroke="white" stroke-opacity="0.17" stroke-width="0.630221"/>
<line x1="4.41156" y1="153.205" x2="17.016" y2="153.205" stroke="white" stroke-opacity="0.17" stroke-width="0.630221"/>
<line x1="4.41156" y1="177.783" x2="17.016" y2="177.783" stroke="white" stroke-opacity="0.17" stroke-width="0.630221"/>
<line x1="4.41156" y1="202.362" x2="17.016" y2="202.362" stroke="white" stroke-opacity="0.17" stroke-width="0.630221"/>
<line x1="4.41156" y1="226.94" x2="17.016" y2="226.94" stroke="white" stroke-opacity="0.17" stroke-width="0.630221"/>
<line x1="4.41156" y1="251.519" x2="17.016" y2="251.519" stroke="white" stroke-opacity="0.17" stroke-width="0.630221"/>
<line x1="4.41156" y1="276.098" x2="17.016" y2="276.098" stroke="white" stroke-opacity="0.17" stroke-width="0.630221"/>
<line x1="4.41156" y1="300.676" x2="17.016" y2="300.676" stroke="white" stroke-opacity="0.17" stroke-width="0.630221"/>
<line x1="4.41156" y1="325.255" x2="17.016" y2="325.255" stroke="white" stroke-opacity="0.17" stroke-width="0.630221"/>
<line x1="4.41156" y1="349.834" x2="17.016" y2="349.834" stroke="white" stroke-opacity="0.17" stroke-width="0.630221"/>
<line x1="4.41156" y1="374.412" x2="17.016" y2="374.412" stroke="white" stroke-opacity="0.17" stroke-width="0.630221"/>
<line x1="4.41156" y1="398.991" x2="17.016" y2="398.991" stroke="white" stroke-opacity="0.17" stroke-width="0.630221"/>
<line x1="4.41156" y1="423.569" x2="17.016" y2="423.569" stroke="white" stroke-opacity="0.17" stroke-width="0.630221"/>
<line x1="4.41156" y1="448.148" x2="17.016" y2="448.148" stroke="white" stroke-opacity="0.17" stroke-width="0.630221"/>
<line x1="4.41156" y1="10.7746" x2="17.016" y2="10.7746" stroke="white" stroke-opacity="0.17" stroke-width="0.630221"/>
<line x1="4.41156" y1="35.3532" x2="17.016" y2="35.3532" stroke="white" stroke-opacity="0.17" stroke-width="0.630221"/>
<line x1="4.41156" y1="59.9318" x2="17.016" y2="59.9318" stroke="white" stroke-opacity="0.17" stroke-width="0.630221"/>
<line x1="4.41156" y1="84.5105" x2="17.016" y2="84.5105" stroke="white" stroke-opacity="0.17" stroke-width="0.630221"/>
<line x1="4.41156" y1="109.089" x2="17.016" y2="109.089" stroke="white" stroke-opacity="0.17" stroke-width="0.630221"/>
<line x1="4.41156" y1="133.668" x2="17.016" y2="133.668" stroke="white" stroke-opacity="0.17" stroke-width="0.630221"/>
<line x1="4.41156" y1="158.246" x2="17.016" y2="158.246" stroke="white" stroke-opacity="0.17" stroke-width="0.630221"/>
<line x1="4.41156" y1="182.825" x2="17.016" y2="182.825" stroke="white" stroke-opacity="0.17" stroke-width="0.630221"/>
<line x1="4.41156" y1="207.404" x2="17.016" y2="207.404" stroke="white" stroke-opacity="0.17" stroke-width="0.630221"/>
<line x1="4.41156" y1="231.982" x2="17.016" y2="231.982" stroke="white" stroke-opacity="0.17" stroke-width="0.630221"/>
<line x1="4.41156" y1="256.561" x2="17.016" y2="256.561" stroke="white" stroke-opacity="0.17" stroke-width="0.630221"/>
<line x1="4.41156" y1="281.139" x2="17.016" y2="281.139" stroke="white" stroke-opacity="0.17" stroke-width="0.630221"/>
<line x1="4.41156" y1="305.718" x2="17.016" y2="305.718" stroke="white" stroke-opacity="0.17" stroke-width="0.630221"/>
<line x1="4.41156" y1="330.297" x2="17.016" y2="330.297" stroke="white" stroke-opacity="0.17" stroke-width="0.630221"/>
<line x1="4.41156" y1="354.875" x2="17.016" y2="354.875" stroke="white" stroke-opacity="0.17" stroke-width="0.630221"/>
<line x1="4.41156" y1="379.454" x2="17.016" y2="379.454" stroke="white" stroke-opacity="0.17" stroke-width="0.630221"/>
<line x1="4.41156" y1="404.033" x2="17.016" y2="404.033" stroke="white" stroke-opacity="0.17" stroke-width="0.630221"/>
<line x1="4.41156" y1="428.611" x2="17.016" y2="428.611" stroke="white" stroke-opacity="0.17" stroke-width="0.630221"/>
<line x1="4.41156" y1="453.19" x2="17.016" y2="453.19" stroke="white" stroke-opacity="0.17" stroke-width="0.630221"/>
<line x1="4.41156" y1="15.8163" x2="17.016" y2="15.8163" stroke="white" stroke-opacity="0.17" stroke-width="0.630221"/>
<line x1="4.41156" y1="40.395" x2="17.016" y2="40.395" stroke="white" stroke-opacity="0.17" stroke-width="0.630221"/>
<line x1="4.41156" y1="64.9736" x2="17.016" y2="64.9736" stroke="white" stroke-opacity="0.17" stroke-width="0.630221"/>
<line x1="4.41156" y1="89.5522" x2="17.016" y2="89.5522" stroke="white" stroke-opacity="0.17" stroke-width="0.630221"/>
<line x1="4.41156" y1="114.131" x2="17.016" y2="114.131" stroke="white" stroke-opacity="0.17" stroke-width="0.630221"/>
<line x1="4.41156" y1="138.709" x2="17.016" y2="138.709" stroke="white" stroke-opacity="0.17" stroke-width="0.630221"/>
<line x1="4.41156" y1="163.288" x2="17.016" y2="163.288" stroke="white" stroke-opacity="0.17" stroke-width="0.630221"/>
<line x1="4.41156" y1="187.867" x2="17.016" y2="187.867" stroke="white" stroke-opacity="0.17" stroke-width="0.630221"/>
<line x1="4.41156" y1="212.445" x2="17.016" y2="212.445" stroke="white" stroke-opacity="0.17" stroke-width="0.630221"/>
<line x1="4.41156" y1="237.024" x2="17.016" y2="237.024" stroke="white" stroke-opacity="0.17" stroke-width="0.630221"/>
<line x1="4.41156" y1="261.603" x2="17.016" y2="261.603" stroke="white" stroke-opacity="0.17" stroke-width="0.630221"/>
<line x1="4.41156" y1="286.181" x2="17.016" y2="286.181" stroke="white" stroke-opacity="0.17" stroke-width="0.630221"/>
<line x1="4.41156" y1="310.76" x2="17.016" y2="310.76" stroke="white" stroke-opacity="0.17" stroke-width="0.630221"/>
<line x1="4.41156" y1="335.338" x2="17.016" y2="335.338" stroke="white" stroke-opacity="0.17" stroke-width="0.630221"/>
<line x1="4.41156" y1="359.917" x2="17.016" y2="359.917" stroke="white" stroke-opacity="0.17" stroke-width="0.630221"/>
<line x1="4.41156" y1="384.496" x2="17.016" y2="384.496" stroke="white" stroke-opacity="0.17" stroke-width="0.630221"/>
<line x1="4.41156" y1="409.074" x2="17.016" y2="409.074" stroke="white" stroke-opacity="0.17" stroke-width="0.630221"/>
<line x1="4.41156" y1="433.653" x2="17.016" y2="433.653" stroke="white" stroke-opacity="0.17" stroke-width="0.630221"/>
<line x1="4.41156" y1="458.232" x2="17.016" y2="458.232" stroke="white" stroke-opacity="0.17" stroke-width="0.630221"/>
<line x1="4.41156" y1="20.8581" x2="17.016" y2="20.8581" stroke="white" stroke-opacity="0.17" stroke-width="0.630221"/>
<line x1="4.41156" y1="45.4367" x2="17.016" y2="45.4367" stroke="white" stroke-opacity="0.17" stroke-width="0.630221"/>
<line x1="4.41156" y1="70.0154" x2="17.016" y2="70.0154" stroke="white" stroke-opacity="0.17" stroke-width="0.630221"/>
<line x1="4.41156" y1="94.594" x2="17.016" y2="94.594" stroke="white" stroke-opacity="0.17" stroke-width="0.630221"/>
<line x1="4.41156" y1="119.173" x2="17.016" y2="119.173" stroke="white" stroke-opacity="0.17" stroke-width="0.630221"/>
<line x1="4.41156" y1="143.751" x2="17.016" y2="143.751" stroke="white" stroke-opacity="0.17" stroke-width="0.630221"/>
<line x1="4.41156" y1="168.33" x2="17.016" y2="168.33" stroke="white" stroke-opacity="0.17" stroke-width="0.630221"/>
<line x1="4.41156" y1="192.908" x2="17.016" y2="192.908" stroke="white" stroke-opacity="0.17" stroke-width="0.630221"/>
<line x1="4.41156" y1="217.487" x2="17.016" y2="217.487" stroke="white" stroke-opacity="0.17" stroke-width="0.630221"/>
<line x1="4.41156" y1="242.066" x2="17.016" y2="242.066" stroke="white" stroke-opacity="0.17" stroke-width="0.630221"/>
<line x1="4.41156" y1="266.644" x2="17.016" y2="266.644" stroke="white" stroke-opacity="0.17" stroke-width="0.630221"/>
<line x1="4.41156" y1="291.223" x2="17.016" y2="291.223" stroke="white" stroke-opacity="0.17" stroke-width="0.630221"/>
<line x1="4.41156" y1="315.802" x2="17.016" y2="315.802" stroke="white" stroke-opacity="0.17" stroke-width="0.630221"/>
<line x1="4.41156" y1="340.38" x2="17.016" y2="340.38" stroke="white" stroke-opacity="0.17" stroke-width="0.630221"/>
<line x1="4.41156" y1="364.959" x2="17.016" y2="364.959" stroke="white" stroke-opacity="0.17" stroke-width="0.630221"/>
<line x1="4.41156" y1="389.537" x2="17.016" y2="389.537" stroke="white" stroke-opacity="0.17" stroke-width="0.630221"/>
<line x1="4.41156" y1="414.116" x2="17.016" y2="414.116" stroke="white" stroke-opacity="0.17" stroke-width="0.630221"/>
<line x1="4.41156" y1="438.695" x2="17.016" y2="438.695" stroke="white" stroke-opacity="0.17" stroke-width="0.630221"/>
<line x1="4.41156" y1="463.273" x2="17.016" y2="463.273" stroke="white" stroke-opacity="0.17" stroke-width="0.630221"/>
</svg>
